<svg xmlns="http://www.w3.org/2000/svg" xmlns:xlink="http://www.w3.org/1999/xlink" viewBox="0,0,256,256" width="40px" height="40px" fill-rule="nonzero"><defs><linearGradient x1="18" y1="8" x2="18" y2="23" gradientUnits="userSpaceOnUse" id="color-1"><stop offset="0" stop-color="#009cf7"></stop><stop offset="0.63" stop-color="#00bff8"></stop><stop offset="1" stop-color="#00cff9"></stop></linearGradient><linearGradient x1="24.609" y1="18.675" x2="23.442" y2="28.672" gradientUnits="userSpaceOnUse" id="color-2"><stop offset="0" stop-color="#0096d6"></stop><stop offset="0.095" stop-color="#0087cb"></stop><stop offset="0.352" stop-color="#0065af"></stop><stop offset="0.596" stop-color="#004c9c"></stop><stop offset="0.818" stop-color="#003d90"></stop><stop offset="1" stop-color="#000000" stop-opacity="0"></stop></linearGradient><linearGradient x1="18" y1="16.255" x2="18" y2="28" gradientUnits="userSpaceOnUse" id="color-3"><stop offset="0" stop-color="#0096d6"></stop><stop offset="0.186" stop-color="#0090d2"></stop><stop offset="0.431" stop-color="#0080c8"></stop><stop offset="0.708" stop-color="#0065b8"></stop><stop offset="1" stop-color="#0040a1"></stop></linearGradient><linearGradient x1="18" y1="8" x2="18" y2="28" gradientUnits="userSpaceOnUse" id="color-4"><stop offset="0" stop-color="#000000" stop-opacity="0.05"></stop><stop offset="1" stop-color="#000000" stop-opacity="0.15"></stop></linearGradient><linearGradient x1="18" y1="8" x2="18" y2="28" gradientUnits="userSpaceOnUse" id="color-5"><stop offset="0" stop-color="#000000" stop-opacity="0.05"></stop><stop offset="1" stop-color="#000000" stop-opacity="0.15"></stop></linearGradient><linearGradient x1="14" y1="4" x2="14" y2="19" gradientUnits="userSpaceOnUse" id="color-6"><stop offset="0" stop-color="#f75f00"></stop><stop offset="0.177" stop-color="#f76e00"></stop><stop offset="0.72" stop-color="#f99600"></stop><stop offset="1" stop-color="#f9a600"></stop></linearGradient><linearGradient x1="22.16" y1="14.947" x2="20.323" y2="19.216" gradientUnits="userSpaceOnUse" id="color-7"><stop offset="0" stop-color="#d65d00"></stop><stop offset="0.412" stop-color="#c35000"></stop><stop offset="1" stop-color="#a13800"></stop></linearGradient><linearGradient x1="14" y1="12.255" x2="14" y2="24" gradientUnits="userSpaceOnUse" id="color-8"><stop offset="0" stop-color="#d65d00"></stop><stop offset="0.252" stop-color="#d05900"></stop><stop offset="0.583" stop-color="#c04d00"></stop><stop offset="0.956" stop-color="#a53b00"></stop><stop offset="1" stop-color="#a13800"></stop></linearGradient><linearGradient x1="14" y1="4" x2="14" y2="24" gradientUnits="userSpaceOnUse" id="color-9"><stop offset="0" stop-color="#000000" stop-opacity="0.05"></stop><stop offset="1" stop-color="#000000" stop-opacity="0.15"></stop></linearGradient></defs><g fill="none" fill-rule="nonzero" stroke="none" stroke-width="1" stroke-linecap="butt" stroke-linejoin="miter" stroke-miterlimit="10" stroke-dasharray="" stroke-dashoffset="0" font-family="none" font-weight="none" font-size="none" text-anchor="none" style="mix-blend-mode: normal"><g transform="scale(8,8)"><path d="M30,23h-24v-14c0,-0.552 0.448,-1 1,-1h22c0.552,0 1,0.448 1,1z" fill="url(#color-1)"></path><circle cx="24.5" cy="13" r="1.5" fill="#fff4db"></circle><path d="M29,28h-11v-7.273l4.629,-2.548c0.571,-0.315 1.259,-0.336 1.849,-0.058l5.522,2.606v6.273c0,0.552 -0.448,1 -1,1z" fill="url(#color-2)"></path><path d="M29,28h-22c-0.552,0 -1,-0.448 -1,-1v-7.182l5.477,-3.275c0.611,-0.366 1.369,-0.385 1.998,-0.051l16.525,8.781v1.727c0,0.552 -0.448,1 -1,1z" fill="url(#color-3)"></path><path d="M29,8h-22c-0.552,0 -1,0.448 -1,1v18c0,0.552 0.448,1 1,1h22c0.552,0 1,-0.448 1,-1v-18c0,-0.552 -0.448,-1 -1,-1zM29.75,27c0,0.414 -0.336,0.75 -0.75,0.75h-22c-0.414,0 -0.75,-0.336 -0.75,-0.75v-18c0,-0.414 0.336,-0.75 0.75,-0.75h22c0.414,0 0.75,0.336 0.75,0.75z" fill="url(#color-4)"></path><path d="M29,8h-22c-0.552,0 -1,0.448 -1,1v18c0,0.552 0.448,1 1,1h22c0.552,0 1,-0.448 1,-1v-18c0,-0.552 -0.448,-1 -1,-1z" fill="url(#color-5)"></path><path d="M7,8c-0.552,0 -1,0.448 -1,1v16h19c1.105,0 2,-0.895 2,-2v-15z" fill="#000000" opacity="0.09"></path><path d="M26.5,8h-20.5v16.5h19c0.828,0 1.5,-0.672 1.5,-1.5z" fill="#000000" opacity="0.09"></path><g><path d="M26,19h-24v-14c0,-0.552 0.448,-1 1,-1h22c0.552,0 1,0.448 1,1z" fill="url(#color-6)"></path><circle cx="21.5" cy="9" r="1.5" fill="#fff4db"></circle><path d="M25,24h-11v-7.273l4.629,-2.548c0.571,-0.315 1.259,-0.336 1.849,-0.058l5.522,2.606v6.273c0,0.552 -0.448,1 -1,1z" fill="url(#color-7)"></path><path d="M25,24h-22c-0.552,0 -1,-0.448 -1,-1v-7.182l5.477,-3.275c0.611,-0.366 1.369,-0.385 1.998,-0.051l16.525,8.781v1.727c0,0.552 -0.448,1 -1,1z" fill="url(#color-8)"></path><path d="M25,4h-22c-0.552,0 -1,0.448 -1,1v18c0,0.552 0.448,1 1,1h22c0.552,0 1,-0.448 1,-1v-18c0,-0.552 -0.448,-1 -1,-1zM25.75,23c0,0.414 -0.336,0.75 -0.75,0.75h-22c-0.414,0 -0.75,-0.336 -0.75,-0.75v-18c0,-0.414 0.336,-0.75 0.75,-0.75h22c0.414,0 0.75,0.336 0.75,0.75z" fill="url(#color-9)"></path></g></g></g></svg>